<svg id="Layer_1" data-name="Layer 1" xmlns="http://www.w3.org/2000/svg" viewBox="0 0 75 75"><defs><style>.cls-1{fill:none;stroke:#000;stroke-miterlimit:10;stroke-width:1.5px;}</style></defs><title>home</title><path d="M38,12.38,16.26,32.52a.76.76,0,0,0,0,1.07.74.74,0,0,0,.55.24.73.73,0,0,0,.51-.21l2.51-2.33V56.51H56.1V31.29l2.51,2.33a.77.77,0,0,0,.52.21.76.76,0,0,0,.52-1.31L38,12.38ZM21.32,55V29.89L38,14.44,54.59,29.89V55H44V42.9a6,6,0,0,0-12.1,0V55Zm12.1,0V42.9a4.54,4.54,0,1,1,9.07,0V55Z"/><circle class="cls-1" cx="37.96" cy="37.25" r="34.45"/></svg>