<svg id="Layer_1" data-name="Layer 1" xmlns="http://www.w3.org/2000/svg" viewBox="0 0 85 85"><defs><style>.cls-1{fill:#010101;}</style></defs><title>paint-square</title><path class="cls-1" d="M33.25,57.16a4.91,4.91,0,0,0,3.48-8.38L34,46.07a1.07,1.07,0,0,0-1.53,0l-2.71,2.71a4.91,4.91,0,0,0,3.47,8.38Zm-1.94-6.85,1.94-1.94,2,1.94a2.75,2.75,0,0,1,0,3.88,2.82,2.82,0,0,1-3.89,0A2.75,2.75,0,0,1,31.31,50.31Z"/><path class="cls-1" d="M42.5,10c-14,0-28.17,2.6-28.17,7.58V67.42c0,5,14.17,7.58,28.17,7.58s28.17-2.6,28.17-7.58V17.58C70.67,12.6,56.5,10,42.5,10Zm-26,10.76a12.36,12.36,0,0,0,1.22.68l.11,0,.6.27.1,0,.68.27.07,0,.77.28.07,0,.85.27.34.09.88.25.68.17.12,0v3.18c-5.1-1.3-6.5-2.76-6.5-3.39V20.75Zm0,5.49v-.09A21.78,21.78,0,0,0,23,28.62v7.83A3.79,3.79,0,0,0,28.42,40v.22a4.42,4.42,0,0,0,3.46,4.39,4.28,4.28,0,0,0,.87.09h0l.21,0a4.62,4.62,0,0,0,.65-.08l.29-.08a5.37,5.37,0,0,0,.56-.21l.25-.11a4.38,4.38,0,0,0,.73-.48,4.32,4.32,0,0,0,1.59-3.35v-6a4.33,4.33,0,0,0,3,.5,4.41,4.41,0,0,0,3.45-4.25c10.35-.1,20.59-1.62,24.93-4.47v6.7C68.5,48.9,57.28,62,43.48,62h-2c-13.8,0-25-13.1-25-29.19Zm52-5.55V23c0,1.85-8.55,5.27-24.92,5.41V25.16c.58,0,1.15,0,1.72,0h.42l1.71-.06h.09L49.13,25l.41,0c.55,0,1.11-.07,1.65-.12h.16l1.5-.13.39,0,1.58-.18.19,0,1.39-.19.36-.05L58.23,24l.22,0,1.25-.23.33-.06,1.34-.29.22-.05L62.7,23,63,23c.41-.11.8-.23,1.18-.35l.21-.06.95-.33.23-.08c.34-.13.68-.26,1-.4l.19-.08.77-.37.17-.09c.28-.15.53-.3.77-.45Zm-26-8.53c17.07,0,26,3.52,26,5.41S59.57,23,42.5,23a1.08,1.08,0,0,0-1.08,1.08v6.36a2.29,2.29,0,0,1-1.73,2.27,2.14,2.14,0,0,1-1.81-.45,2.17,2.17,0,0,1-.8-1.68,1.08,1.08,0,0,0-2.16,0v9.75a2.17,2.17,0,0,1-.8,1.68,2.14,2.14,0,0,1-1.81.45,2.29,2.29,0,0,1-1.73-2.27V36.54a1.08,1.08,0,1,0-2.16,0,1.61,1.61,0,0,1-.65,1.29,1.57,1.57,0,0,1-1.43.27,1.68,1.68,0,0,1-1.17-1.65V23a2.58,2.58,0,0,1,0-.4,1.17,1.17,0,0,0,0-.42.14.14,0,0,0,0-.06,1.27,1.27,0,0,0-.13-.32s0,0,0,0a1.11,1.11,0,0,0-.63-.42c-.37-.08-.73-.16-1.06-.25L22.94,21l-.54-.15-.46-.13-.39-.11-.49-.15-.28-.1h0l-.5-.17L20,20.06h0l-.45-.18-.18-.07,0,0L19,19.61l-.2-.09h0l-.34-.17-.11-.06-.08,0-.3-.17-.16-.1-.26-.17-.13-.1-.22-.18-.09-.07-.15-.15-.06-.06-.07-.08-.06-.08h0a1.37,1.37,0,0,1-.18-.33v-.05a.59.59,0,0,1,0-.13C16.5,15.69,25.43,12.17,42.5,12.17Zm26,55.25c0,1.89-8.93,5.41-26,5.41s-26-3.52-26-5.41V45.07c4.15,11.22,13.8,19.1,25,19.1h2c11.22,0,20.87-7.88,25-19.1Z"/><circle class="cls-1" cx="29.5" cy="14.33" r="1.08"/><circle class="cls-1" cx="19.75" cy="17.58" r="1.08"/><circle class="cls-1" cx="29.5" cy="20.83" r="1.08"/><circle class="cls-1" cx="42.5" cy="20.83" r="1.08"/><circle class="cls-1" cx="26.25" cy="17.58" r="1.08"/><circle class="cls-1" cx="36" cy="14.33" r="1.08"/><circle class="cls-1" cx="42.5" cy="14.33" r="1.08"/><circle class="cls-1" cx="32.75" cy="17.58" r="1.08"/><circle class="cls-1" cx="36" cy="20.83" r="1.08"/><circle class="cls-1" cx="39.25" cy="17.58" r="1.08"/><circle class="cls-1" cx="49" cy="14.33" r="1.08"/><circle class="cls-1" cx="55.5" cy="14.33" r="1.08"/><circle class="cls-1" cx="45.75" cy="17.58" r="1.08"/><circle class="cls-1" cx="49" cy="20.83" r="1.08"/><circle class="cls-1" cx="55.5" cy="20.83" r="1.08"/><circle class="cls-1" cx="52.25" cy="17.58" r="1.08"/><circle class="cls-1" cx="58.75" cy="17.58" r="1.08"/><circle class="cls-1" cx="65.25" cy="17.58" r="1.08"/></svg>