<svg id="Layer_1" data-name="Layer 1" xmlns="http://www.w3.org/2000/svg" viewBox="0 0 85 85"><defs><style>.cls-1{fill:#010101;}</style></defs><title>gallery-square</title><path class="cls-1" d="M78.19,10H17a2.55,2.55,0,0,0-2.55,2.55V15.1H11.91a2.55,2.55,0,0,0-2.55,2.55V20.2H6.81a2.55,2.55,0,0,0-2.55,2.55v49.7A2.55,2.55,0,0,0,6.81,75H68a2.55,2.55,0,0,0,2.55-2.55V69.9h2.55a2.55,2.55,0,0,0,2.55-2.55V64.8h2.55a2.55,2.55,0,0,0,2.55-2.55V12.55A2.55,2.55,0,0,0,78.19,10ZM6.81,22.75H68V51.22L61.3,43.57a1.32,1.32,0,0,0-1.92,0L51.31,52.8l-22-19.54a1.28,1.28,0,0,0-1.7,0L6.81,51.77ZM68,68.64v3.81H6.81V55.18L28.48,35.92l22.1,19.64a1.33,1.33,0,0,0,.92.32,1.28,1.28,0,0,0,.88-.43l8-9.1L68,55.09V68.62h0Zm5.1-1.29H70.54V22.75A2.55,2.55,0,0,0,68,20.2H11.91V17.65H73.09v49.7Zm5.1-5.1H75.64V17.65a2.55,2.55,0,0,0-2.55-2.55H17V12.55H78.19Z"/><path class="cls-1" d="M50.15,30.39a5.1,5.1,0,1,0,5.09,5.1A5.11,5.11,0,0,0,50.15,30.39Zm0,7.65a2.55,2.55,0,1,1,2.55-2.55A2.55,2.55,0,0,1,50.15,38Z"/></svg>